<?xml version="1.0" encoding="UTF-8"?>
<svg version="1.1" xmlns="http://www.w3.org/2000/svg" width="1280" height="1280">
<path d="M0 0 C4.54809451 0.02282198 9.09525327 0.00918293 13.64331627 -0.01377964 C45.52747062 -0.1495698 76.82588051 2.41098229 108.24267578 7.97851562 C111.62700076 8.57436258 115.01551515 9.14197212 118.40478516 9.70898438 C131.16842125 11.87612029 143.65168012 14.41376715 156.11083984 17.92285156 C158.32209847 18.52025198 160.53899075 19.05079151 162.77197266 19.56054688 C178.03997716 23.07373927 192.7749087 28.16171621 207.57714844 33.23925781 C210.70640931 34.30937619 213.84024453 35.3625058 216.97900391 36.40429688 C235.22177532 42.52507183 252.97325017 50.22450389 270.32666016 58.52148438 C272.22500216 59.41361469 274.12345118 60.3055173 276.02197266 61.19726562 C291.38442927 68.45091065 306.34035322 76.165219 320.83837891 85.02929688 C323.38254596 86.55499831 325.95746844 88.02023294 328.54101562 89.47802734 C334.64599328 92.92487999 340.54674761 96.55214684 346.32666016 100.52148438 C348.3047009 101.83568061 350.28394498 103.14806683 352.26416016 104.45898438 C361.8421829 110.8563807 371.13100446 117.56359327 380.31884766 124.50585938 C382.87150282 126.4335499 385.43684736 128.34070106 388.02197266 130.22460938 C388.86332764 130.84166748 388.86332764 130.84166748 389.72167969 131.47119141 C391.23294431 132.57785826 392.74841767 133.67877108 394.26416016 134.77929688 C394.94478516 135.35421875 395.62541016 135.92914063 396.32666016 136.52148438 C396.32666016 137.18148437 396.32666016 137.84148437 396.32666016 138.52148438 C397.14457031 138.87726563 397.14457031 138.87726563 397.97900391 139.24023438 C400.92981449 140.85066012 403.31370233 142.86300543 405.88916016 145.02148438 C408.65577727 147.33388077 411.32542564 149.52066136 414.32666016 151.52148438 C414.32666016 152.18148437 414.32666016 152.84148437 414.32666016 153.52148438 C414.86291016 153.74835938 415.39916016 153.97523438 415.95166016 154.20898438 C419.15126177 155.97718527 421.61703239 158.0581864 424.32666016 160.52148438 C424.32666016 161.18148437 424.32666016 161.84148437 424.32666016 162.52148438 C425.15423828 162.85599609 425.15423828 162.85599609 425.99853516 163.19726562 C429.05722775 164.93702534 431.13404136 167.17912919 433.57666016 169.70898438 C436.65786339 172.8679932 439.7355797 175.95599557 443.13916016 178.77148438 C449.21147363 183.93484448 454.43757271 190.03807457 459.81298828 195.90576172 C461.08335172 197.26177224 462.4100581 198.56469175 463.74853516 199.85351562 C465.32666016 201.52148438 465.32666016 201.52148438 465.32666016 203.52148438 C466.31666016 203.85148438 467.30666016 204.18148437 468.32666016 204.52148438 C469.93212891 206.08007813 469.93212891 206.08007813 471.51416016 207.95898438 C472.04396484 208.57644531 472.57376953 209.19390625 473.11962891 209.83007812 C474.32666016 211.52148438 474.32666016 211.52148438 474.32666016 213.52148438 C475.31666016 213.85148438 476.30666016 214.18148437 477.32666016 214.52148438 C479.22900391 216.63085938 479.22900391 216.63085938 481.26416016 219.27148438 C481.93318359 220.13257813 482.60220703 220.99367187 483.29150391 221.88085938 C484.29890625 223.18796875 484.29890625 223.18796875 485.32666016 224.52148438 C486.07044922 225.41351563 486.81423828 226.30554688 487.58056641 227.22460938 C489.32666016 229.52148438 489.32666016 229.52148438 489.32666016 231.52148438 C490.31666016 231.85148438 491.30666016 232.18148437 492.32666016 232.52148438 C493.65771484 233.9609375 493.65771484 233.9609375 494.99853516 235.80273438 C495.74345215 236.81267456 495.74345215 236.81267456 496.50341797 237.84301758 C497.02258789 238.56191162 497.54175781 239.28080566 498.07666016 240.02148438 C499.14875237 241.48432855 500.22166509 242.94657174 501.29541016 244.40820312 C501.81361328 245.11638184 502.33181641 245.82456055 502.86572266 246.55419922 C505.21836627 249.72224772 507.70622706 252.77910236 510.21728516 255.82226562 C511.32666016 257.52148438 511.32666016 257.52148438 511.32666016 260.52148438 C511.98666016 260.52148438 512.64666016 260.52148438 513.32666016 260.52148438 C514.79125977 262.38574219 514.79125977 262.38574219 516.47900391 264.97460938 C517.09066406 265.90402344 517.70232422 266.8334375 518.33251953 267.79101562 C518.96996094 268.77457031 519.60740234 269.758125 520.26416016 270.77148438 C521.5223487 272.69396575 522.781431 274.61586256 524.04150391 276.53710938 C524.5995874 277.39594727 525.1576709 278.25478516 525.73266602 279.13964844 C527.28010495 281.52630131 527.28010495 281.52630131 529.03198242 283.64550781 C530.32666016 285.52148438 530.32666016 285.52148438 530.32666016 288.52148438 C530.98666016 288.52148438 531.64666016 288.52148438 532.32666016 288.52148438 C532.83455078 289.42769531 533.34244141 290.33390625 533.86572266 291.26757812 C538.37242796 299.30158275 538.37242796 299.30158275 543.38916016 307.02148438 C546.64801767 311.77288096 549.09375234 316.89438533 551.61572266 322.05664062 C553.08151094 325.02502923 554.60440336 327.93509567 556.20166016 330.83398438 C558.79762544 335.54569617 561.35715958 340.27516084 563.88916016 345.02148438 C564.25315918 345.69735596 564.6171582 346.37322754 564.9921875 347.06958008 C568.02754266 352.77465878 570.70273223 358.61751997 573.32666016 364.52148438 C573.73456787 365.43655762 574.14247559 366.35163086 574.56274414 367.29443359 C579.57633314 378.59667496 584.4212455 389.91357447 588.60693359 401.54931641 C589.35898271 403.61005344 590.1404608 405.65774233 590.92822266 407.70507812 C597.92011701 426.01285463 603.57571163 444.81817322 608.76416016 463.70898438 C609.11619507 464.98866089 609.11619507 464.98866089 609.4753418 466.29418945 C610.77618691 471.13903139 611.86704011 475.99152748 612.81958008 480.91625977 C613.35723566 483.67857208 613.92979524 486.43192181 614.51025391 489.18554688 C625.39945198 540.91569375 628.8373681 591.7383163 628.32666016 644.52148438 C628.3140918 645.83600586 628.30152344 647.15052734 628.28857422 648.50488281 C627.84668275 680.9072514 623.50885622 713.70802247 616.77587891 745.38134766 C616.22686222 747.99693474 615.69905563 750.61654873 615.17041016 753.23632812 C612.89600301 764.44282433 610.48647754 775.52805872 607.32666016 786.52148438 C606.96749512 787.79548096 606.96749512 787.79548096 606.60107422 789.09521484 C600.56691033 810.48806149 593.81639258 831.50739382 585.33105469 852.05957031 C584.29342852 854.60293984 583.28848052 857.15723736 582.29150391 859.71679688 C578.86124151 868.50050987 575.24932089 876.9892826 570.90478516 885.36523438 C569.40020511 888.37439447 568.12385501 891.39359074 566.88916016 894.52148438 C564.77113175 899.76412894 562.11841055 904.59272922 559.26391602 909.45776367 C557.36223994 912.69932808 555.574417 915.94460927 553.95166016 919.33398438 C550.5453249 926.31985837 546.45506909 932.93475403 542.47216797 939.60205078 C541.53037535 941.18013552 540.59552207 942.76235957 539.66259766 944.34570312 C535.41216383 951.52869884 530.87718709 958.52639126 526.32666016 965.52148438 C525.81232422 966.31425781 525.29798828 967.10703125 524.76806641 967.92382812 C521.32412164 973.16291691 517.68306351 978.25404377 514.01635742 983.33837891 C511.03157562 987.48879834 508.19456585 991.70942585 505.48291016 996.04492188 C505.10134766 996.5321875 504.71978516 997.01945313 504.32666016 997.52148438 C503.66666016 997.52148438 503.00666016 997.52148438 502.32666016 997.52148438 C502.08947266 998.05644531 501.85228516 998.59140625 501.60791016 999.14257812 C499.96192661 1002.19868781 497.93224687 1004.82552905 495.82666016 1007.58398438 C493.58388926 1010.52944161 491.38034803 1013.44095256 489.32666016 1016.52148438 C488.66666016 1016.52148438 488.00666016 1016.52148438 487.32666016 1016.52148438 C487.05853516 1017.09382813 486.79041016 1017.66617188 486.51416016 1018.25585938 C485.2853338 1020.60033072 483.90143839 1022.64553375 482.32666016 1024.77148438 C481.81103516 1025.47789063 481.29541016 1026.18429687 480.76416016 1026.91210938 C480.28978516 1027.44320313 479.81541016 1027.97429687 479.32666016 1028.52148438 C478.66666016 1028.52148438 478.00666016 1028.52148438 477.32666016 1028.52148438 C477.03791016 1029.11960937 476.74916016 1029.71773437 476.45166016 1030.33398438 C475.32666016 1032.52148438 475.32666016 1032.52148438 473.32666016 1035.52148438 C472.66666016 1035.52148438 472.00666016 1035.52148438 471.32666016 1035.52148438 C471.06240234 1036.11445312 470.79814453 1036.70742187 470.52587891 1037.31835938 C469.28295591 1039.60177492 468.0226437 1040.99575161 466.13916016 1042.77148438 C463.71226832 1045.0676537 461.50251467 1047.46496649 459.33447266 1050.00195312 C454.79013725 1055.23394603 449.8912172 1060.10692979 444.98413086 1064.99438477 C443.39207049 1066.58108384 441.80543025 1068.17306179 440.21923828 1069.765625 C435.27006943 1074.71769031 430.29228041 1079.58880853 424.94555664 1084.11694336 C423.28035674 1085.51465143 423.28035674 1085.51465143 421.73706055 1087.20532227 C420.32666016 1088.52148438 420.32666016 1088.52148438 418.32666016 1088.52148438 C417.99666016 1089.51148438 417.66666016 1090.50148438 417.32666016 1091.52148438 C413.88221571 1094.52148438 413.88221571 1094.52148438 411.32666016 1094.52148438 C411.32666016 1095.18148438 411.32666016 1095.84148437 411.32666016 1096.52148438 C409.66650391 1098.04492187 409.66650391 1098.04492187 407.26416016 1099.89648438 C406.36310547 1100.59902344 405.46205078 1101.3015625 404.53369141 1102.02539062 C404.02789551 1102.41742676 403.52209961 1102.80946289 403.00097656 1103.21337891 C399.79174102 1105.72068191 396.62622169 1108.28303199 393.45166016 1110.83398438 C391.08192915 1112.73654918 388.70727773 1114.63256445 386.32666016 1116.52148438 C385.56095703 1117.13378906 384.79525391 1117.74609375 384.00634766 1118.37695312 C382.32666016 1119.52148438 382.32666016 1119.52148438 380.32666016 1119.52148438 C380.32666016 1120.18148438 380.32666016 1120.84148437 380.32666016 1121.52148438 C378.5480396 1122.90722471 376.69884762 1124.20252847 374.82666016 1125.45898438 C373.62340694 1126.27259687 372.42028777 1127.08640763 371.21728516 1127.90039062 C370.57984375 1128.32852051 369.94240234 1128.75665039 369.28564453 1129.19775391 C367.34600597 1130.50841197 365.42038699 1131.83724972 363.49853516 1133.17382812 C351.50435159 1141.50989099 339.36044804 1149.66378474 326.76416016 1157.06835938 C324.93650905 1158.15792061 323.12678851 1159.27765349 321.32666016 1160.41210938 C314.68038791 1164.59798276 307.9606586 1168.31137842 300.90087891 1171.75195312 C297.92325141 1173.2261228 294.99348114 1174.76017932 292.07568359 1176.34863281 C272.79037689 1186.83859209 252.67982881 1195.35865232 232.32666016 1203.52148438 C231.54516602 1203.83569336 230.76367188 1204.14990234 229.95849609 1204.47363281 C203.12146497 1215.16351867 175.12050896 1223.5267809 146.97167969 1229.91699219 C144.38716204 1230.50765729 141.808224 1231.11909785 139.22900391 1231.73242188 C87.81200489 1243.69819506 35.91366306 1246.02351468 -16.67333984 1245.52148438 C-17.72739014 1245.51211853 -17.72739014 1245.51211853 -18.80273438 1245.50256348 C-39.2779594 1245.30319543 -59.39159391 1243.11952732 -79.67333984 1240.52148438 C-80.69508301 1240.39515625 -81.71682617 1240.26882813 -82.76953125 1240.13867188 C-108.48567154 1236.94446633 -133.70602862 1231.3717972 -158.67333984 1224.52148438 C-159.62152588 1224.26512207 -160.56971191 1224.00875977 -161.54663086 1223.74462891 C-177.8251286 1219.33997571 -193.82317337 1214.27951421 -209.67333984 1208.52148438 C-210.80425049 1208.1108374 -210.80425049 1208.1108374 -211.95800781 1207.69189453 C-218.91453119 1205.15289406 -225.81190652 1202.5598478 -232.53662109 1199.44726562 C-235.04319555 1198.36123611 -237.59214483 1197.47761189 -240.17333984 1196.58398438 C-244.57332779 1195.02348796 -248.43542475 1193.07199019 -252.45849609 1190.72460938 C-254.66030633 1189.52856431 -256.82595146 1188.64235359 -259.17333984 1187.77148438 C-266.35299073 1185.02302427 -273.00196275 1181.17954246 -279.75830078 1177.54199219 C-282.08361845 1176.30285044 -284.43385059 1175.12145903 -286.79833984 1173.95898438 C-296.93010396 1168.92744728 -306.77677977 1163.68309697 -316.19384766 1157.40332031 C-318.68938294 1155.74602515 -320.81254576 1154.4750824 -323.67333984 1153.52148438 C-323.67333984 1152.86148437 -323.67333984 1152.20148438 -323.67333984 1151.52148438 C-325.65333984 1150.86148437 -327.63333984 1150.20148438 -329.67333984 1149.52148438 C-329.67333984 1148.86148437 -329.67333984 1148.20148438 -329.67333984 1147.52148438 C-330.50478516 1147.37066406 -330.50478516 1147.37066406 -331.35302734 1147.21679688 C-345.47843122 1142.98393174 -359.47887003 1129.04594124 -371.23388672 1120.32910156 C-373.58079468 1118.59005967 -375.93163207 1116.85643793 -378.28271484 1115.12304688 C-379.70487914 1114.0687495 -381.1267681 1113.01408059 -382.54833984 1111.95898438 C-383.19561035 1111.48307861 -383.84288086 1111.00717285 -384.50976562 1110.5168457 C-388.20927487 1107.75862881 -391.42696789 1104.81567522 -394.67333984 1101.52148438 C-397.29998241 1099.39332872 -399.97481934 1097.34239857 -402.66162109 1095.29101562 C-403.65742188 1094.41509766 -403.65742188 1094.41509766 -404.67333984 1093.52148438 C-404.67333984 1092.86148437 -404.67333984 1092.20148438 -404.67333984 1091.52148438 C-405.27146484 1091.23273438 -405.86958984 1090.94398437 -406.48583984 1090.64648438 C-408.67333984 1089.52148437 -408.67333984 1089.52148437 -411.67333984 1087.52148438 C-411.67333984 1086.86148437 -411.67333984 1086.20148438 -411.67333984 1085.52148438 C-412.54732422 1085.14056641 -412.54732422 1085.14056641 -413.43896484 1084.75195312 C-415.91522017 1083.38828105 -417.4785461 1081.87923234 -419.42333984 1079.83398438 C-421.94316367 1077.24506117 -424.47139359 1074.78376924 -427.23583984 1072.45898438 C-437.26645472 1063.82151045 -446.61102764 1054.1030149 -455.01708984 1043.88867188 C-456.91258785 1041.58864685 -458.81457235 1039.38025187 -460.92333984 1037.27148438 C-467.63073322 1030.564091 -474.37888486 1023.42060693 -479.67333984 1015.52148438 C-479.67333984 1014.86148438 -479.67333984 1014.20148437 -479.67333984 1013.52148438 C-480.66333984 1013.19148438 -481.65333984 1012.86148438 -482.67333984 1012.52148438 C-483.95678711 1011.16137695 -483.95678711 1011.16137695 -485.23974609 1009.41601562 C-485.71992188 1008.76963135 -486.20009766 1008.12324707 -486.69482422 1007.45727539 C-487.20335937 1006.75658936 -487.71189453 1006.05590332 -488.23583984 1005.33398438 C-488.76886719 1004.61073975 -489.30189453 1003.88749512 -489.85107422 1003.14233398 C-491.46779242 1000.94198822 -493.0727463 998.73358027 -494.67333984 996.52148438 C-495.11661621 995.90982422 -495.55989258 995.29816406 -496.01660156 994.66796875 C-498.48817032 991.24862646 -500.93169831 987.81024955 -503.36523438 984.36376953 C-504.7581424 982.40205173 -506.16603195 980.45166913 -507.57568359 978.50195312 C-514.2370914 969.24610228 -520.38670614 959.78444532 -526.2109375 949.98144531 C-527.77734865 947.34652733 -529.35610365 944.71921499 -530.93505859 942.09179688 C-537.14720425 931.71232931 -543.0857068 921.24800136 -548.63818359 910.50195312 C-549.69176194 908.48623908 -550.77145153 906.48680015 -551.86083984 904.49023438 C-555.16148766 898.43292747 -558.25690063 892.44222546 -560.68505859 885.97070312 C-562.2151927 882.17863163 -564.11837582 878.58751591 -566.01318359 874.96679688 C-580.18346525 845.5592947 -590.86250935 813.19336518 -598.67333984 781.52148438 C-598.83662781 780.86573425 -598.99991577 780.20998413 -599.16815186 779.53436279 C-605.3439823 754.71272467 -610.28995473 729.87770901 -613.67333984 704.52148438 C-613.77646484 703.75765442 -613.87958984 702.99382446 -613.98583984 702.20684814 C-622.22776711 640.72330966 -620.88996031 576.54924692 -609.67333984 515.52148438 C-609.45419922 514.31089355 -609.23505859 513.10030273 -609.00927734 511.85302734 C-604.84452633 489.0184069 -599.50614382 466.64760955 -593.11083984 444.33398438 C-592.92701752 443.68776123 -592.74319519 443.04153809 -592.55380249 442.37573242 C-590.31302174 434.52980459 -587.76950319 426.90817026 -584.76928711 419.32006836 C-583.52104218 416.13258081 -582.44934424 412.91178409 -581.42333984 409.64648438 C-576.4605248 394.60246512 -570.67861924 379.94102444 -563.37255859 365.88085938 C-561.96386619 363.0958583 -560.76504477 360.37655386 -559.67333984 357.45898438 C-557.81552476 352.57814562 -555.36993682 348.05438235 -552.87866211 343.47705078 C-550.34410215 338.81392712 -547.95159555 334.09695796 -545.61083984 329.33398438 C-542.25237355 322.5463558 -538.5854932 316.00830276 -534.67333984 309.52148438 C-534.00818359 308.39742188 -533.34302734 307.27335937 -532.65771484 306.11523438 C-526.946973 296.48177849 -521.01741471 286.98529092 -514.97558594 277.55615234 C-514.14176451 276.25336499 -513.31578777 274.94550266 -512.5 273.63134766 C-511.61010771 272.22683868 -510.64911124 270.86774733 -509.67333984 269.52148438 C-509.01333984 269.52148438 -508.35333984 269.52148438 -507.67333984 269.52148438 C-507.67333984 268.53148437 -507.67333984 267.54148437 -507.67333984 266.52148438 C-507.01333984 266.52148438 -506.35333984 266.52148438 -505.67333984 266.52148438 C-505.46708984 265.87824219 -505.26083984 265.235 -505.04833984 264.57226562 C-503.09966976 260.24865387 -500.41425878 256.56501773 -497.67333984 252.70898438 C-497.12677734 251.92072266 -496.58021484 251.13246094 -496.01708984 250.3203125 C-495.49115234 249.57587891 -494.96521484 248.83144531 -494.42333984 248.06445312 C-493.94380859 247.38406982 -493.46427734 246.70368652 -492.97021484 246.00268555 C-492.54224609 245.51388916 -492.11427734 245.02509277 -491.67333984 244.52148438 C-491.01333984 244.52148438 -490.35333984 244.52148438 -489.67333984 244.52148438 C-489.39337158 243.93359131 -489.11340332 243.34569824 -488.82495117 242.73999023 C-487.0224068 239.26750334 -484.67584178 236.22906669 -482.36083984 233.08398438 C-481.65024414 232.10075195 -481.65024414 232.10075195 -480.92529297 231.09765625 C-478.09424482 227.2364319 -475.09987998 223.88127373 -471.67333984 220.52148438 C-469.54518418 217.8948418 -467.49425404 215.22000488 -465.44287109 212.53320312 C-464.56695312 211.53740234 -464.56695312 211.53740234 -463.67333984 210.52148438 C-463.01333984 210.52148438 -462.35333984 210.52148438 -461.67333984 210.52148438 C-461.33302734 209.71710938 -461.33302734 209.71710938 -460.98583984 208.89648438 C-458.10758396 203.68821183 -453.85023011 199.68789356 -449.67333984 195.52148438 C-448.6227187 194.46655316 -447.57261466 193.41110677 -446.52294922 192.35522461 C-443.41124841 189.22571868 -440.2964951 186.09927045 -437.18066406 182.97387695 C-435.84155244 181.62971639 -434.5033369 180.28466251 -433.16601562 178.9387207 C-431.22291681 176.98345665 -429.27657427 175.03147211 -427.32958984 173.08007812 C-426.44031799 172.18306435 -426.44031799 172.18306435 -425.53308105 171.26792908 C-422.38909653 168.12352357 -419.18156993 165.26505137 -415.67333984 162.52148438 C-414.80708984 161.63460937 -413.94083984 160.74773437 -413.04833984 159.83398438 C-410.67333984 157.52148438 -410.67333984 157.52148438 -407.67333984 156.52148438 C-407.34333984 155.53148437 -407.01333984 154.54148438 -406.67333984 153.52148438 C-404.9410771 151.91335772 -403.13883895 150.37951121 -401.29833984 148.89648438 C-400.32123047 148.09984375 -399.34412109 147.30320313 -398.33740234 146.48242188 C-395.67333984 144.52148438 -395.67333984 144.52148438 -392.67333984 143.52148438 C-392.67333984 142.86148438 -392.67333984 142.20148438 -392.67333984 141.52148438 C-390.80835875 139.98071849 -388.94755533 138.553952 -386.98583984 137.14648438 C-382.37468825 133.7800849 -382.37468825 133.7800849 -377.90380859 130.23242188 C-375.67333984 128.52148438 -375.67333984 128.52148438 -373.67333984 128.52148438 C-373.67333984 127.86148438 -373.67333984 127.20148438 -373.67333984 126.52148438 C-372.19213867 125.25634766 -372.19213867 125.25634766 -370.13037109 123.84179688 C-369.3859375 123.32488281 -368.64150391 122.80796875 -367.87451172 122.27539062 C-367.08625 121.73785156 -366.29798828 121.2003125 -365.48583984 120.64648438 C-363.9496814 119.58804159 -362.414501 118.52817773 -360.88037109 117.46679688 C-360.15027832 116.96438477 -359.42018555 116.46197266 -358.66796875 115.94433594 C-356.99334664 114.7497585 -355.39119688 113.45448955 -353.81005859 112.13867188 C-351.67333984 110.52148438 -351.67333984 110.52148438 -348.67333984 110.52148438 C-348.67333984 109.86148438 -348.67333984 109.20148438 -348.67333984 108.52148438 C-347.34884817 107.58039819 -346.0125344 106.65375882 -344.63818359 105.78710938 C-342.32148096 104.29483969 -340.09966014 102.69062608 -337.86083984 101.08398438 C-334.00069141 98.37207143 -330.08933968 95.9906766 -325.93896484 93.75585938 C-320.72180801 90.91340841 -315.66445293 87.77875939 -310.64208984 84.60742188 C-304.01025211 80.43837825 -297.30987107 76.73063674 -290.26708984 73.30273438 C-287.18622676 71.79593671 -284.17368247 70.18460063 -281.16430664 68.54052734 C-274.71488697 65.01836619 -268.19069898 61.90024029 -261.43017578 59.02099609 C-257.55258935 57.36468853 -253.78875813 55.59987355 -250.04833984 53.64648438 C-232.38088819 44.64426786 -213.18971351 37.89617554 -194.36474609 31.73242188 C-191.9507824 30.94053961 -189.54162137 30.1338239 -187.13818359 29.31054688 C-170.29051757 23.55410821 -153.21086624 18.98271439 -135.81591797 15.21191406 C-133.40531 14.68229945 -130.9988922 14.14028409 -128.59326172 13.58886719 C-119.00465618 11.40173942 -109.41194751 9.45775582 -99.70458984 7.87597656 C-97.62147617 7.53350815 -95.54219478 7.17255176 -93.46240234 6.81054688 C-62.49350023 1.60137545 -31.36022163 -0.15854242 0 0 Z " fill="#6047EB" transform="translate(636.67333984375,18.478515625)"/>
<path d="M0 0 C21.92523208 -0.34113303 43.24382544 -0.08096502 65 3 C66.66110926 3.21752621 68.32254558 3.43257701 69.984375 3.64453125 C73.3263225 4.07337673 76.66423306 4.52505831 80 5 C80 5.66 80 6.32 80 7 C80.67804688 7.12117187 81.35609375 7.24234375 82.0546875 7.3671875 C88.38507309 8.50700762 94.69752644 9.71489693 101 11 C101 11.66 101 12.32 101 13 C104.96 13.495 104.96 13.495 109 14 C109 14.66 109 15.32 109 16 C110.32 16 111.64 16 113 16 C113 16.66 113 17.32 113 18 C113.825 18.103125 114.65 18.20625 115.5 18.3125 C119.59289012 19.11646056 123.12540225 20.46352158 127 22 C127 22.66 127 23.32 127 24 C127.86625 24.28875 128.7325 24.5775 129.625 24.875 C132.75 25.91666667 135.875 26.95833333 139 28 C139 28.66 139 29.32 139 30 C139.85207031 30.24492188 140.70414063 30.48984375 141.58203125 30.7421875 C145.29457405 32.10840325 148.41387737 33.95161201 151.6875 36.125 C152.2969043 36.52388428 152.90630859 36.92276855 153.53417969 37.33374023 C170.82952002 48.74568134 186.14524846 61.93412831 200.64306641 76.6796875 C201.30741699 77.35257813 201.97176758 78.02546875 202.65625 78.71875 C203.25244141 79.32654297 203.84863281 79.93433594 204.46289062 80.56054688 C205.95809649 82.09777728 205.95809649 82.09777728 208 83 C209.02452726 84.65170266 210.02127198 86.32075337 211 88 C212.06320653 89.46211503 213.14997074 90.9073455 214.2578125 92.3359375 C221.42677064 101.67482799 228.29742356 110.95001323 234.0234375 121.24951172 C234.98399749 122.9713155 235.9761653 124.67536306 236.96875 126.37890625 C246.28911144 142.71494114 252.96562029 160.91352475 258 179 C258.28230469 179.99128906 258.56460937 180.98257813 258.85546875 182.00390625 C262.41008303 195.26604583 264.11852976 208.71517787 265.1875 222.375 C265.27136963 223.44379395 265.35523926 224.51258789 265.44165039 225.61376953 C267.12712057 249.14489692 265.36267562 273.02833178 260 296 C259.72349609 297.20293701 259.72349609 297.20293701 259.44140625 298.43017578 C253.06862727 325.62985573 241.81561922 351.93687169 226 375 C225.37762451 375.91313965 225.37762451 375.91313965 224.74267578 376.84472656 C212.32191765 394.94340911 197.89271954 411.91814081 181 426 C180.49259277 426.42651855 179.98518555 426.85303711 179.46240234 427.29248047 C146.88564561 454.53798502 108.52666883 472.19587353 66.9375 480.3125 C65.72670776 480.55154053 65.72670776 480.55154053 64.49145508 480.79541016 C52.05823714 483.08816784 39.51844085 483.18648619 26.91821289 483.18530273 C24.33397753 483.18748189 21.75017561 483.2056895 19.16601562 483.22460938 C-21.62633396 483.36204892 -60.56534943 472.08915334 -96 452 C-96.96808594 451.45730469 -97.93617188 450.91460938 -98.93359375 450.35546875 C-109.57275758 444.1762424 -119.56592898 436.87793559 -129 429 C-129.79059814 428.34475342 -129.79059814 428.34475342 -130.59716797 427.67626953 C-142.93602035 417.42146868 -154.10649185 406.67001666 -164 394 C-164.77730469 393.03964844 -165.55460937 392.07929687 -166.35546875 391.08984375 C-187.65654672 364.3026376 -202.46830858 333.27541401 -210.875 300.1875 C-211.090354 299.34558105 -211.30570801 298.50366211 -211.52758789 297.63623047 C-212.49588849 293.68524327 -213.28290119 290.10206722 -213 286 C-213.66 286 -214.32 286 -215 286 C-215.495 275.605 -215.495 275.605 -216 265 C-216.66 265 -217.32 265 -218 265 C-218 249.49 -218 233.98 -218 218 C-217.34 218 -216.68 218 -216 218 C-215.97421875 217.23300781 -215.9484375 216.46601562 -215.921875 215.67578125 C-215.52816195 207.97153261 -214.50822834 200.57157269 -213.0625 193 C-212.89266602 192.10450439 -212.72283203 191.20900879 -212.54785156 190.28637695 C-211.64688018 185.7193101 -210.53160377 181.40418251 -209 177 C-208.62468554 174.67305036 -208.28082798 172.34023315 -208 170 C-207.34 170 -206.68 170 -206 170 C-205.67 167.03 -205.34 164.06 -205 161 C-204.34 161 -203.68 161 -203 161 C-202.938125 159.39125 -202.938125 159.39125 -202.875 157.75 C-202.25086577 152.57335724 -199.90022573 148.46534314 -197.48828125 143.90625 C-196.23214112 141.45331494 -195.21801198 139.09547818 -194.3125 136.5 C-193.14554172 133.38811125 -192.02373134 131.55166125 -190 129 C-189.73058594 128.29875 -189.46117187 127.5975 -189.18359375 126.875 C-183.78513717 113.76191734 -174.80342555 101.99286375 -166 91 C-165.53400391 90.41686035 -165.06800781 89.8337207 -164.58789062 89.23291016 C-153.31374031 75.2833356 -140.52557137 61.57014655 -126 51 C-124.84024654 50.12488845 -123.68147266 49.24847787 -122.5234375 48.37109375 C-111.93155219 40.40634573 -100.95860731 33.44982406 -89.2421875 27.2265625 C-86.82722063 25.9478816 -86.82722063 25.9478816 -84 24 C-81.3125 23.875 -81.3125 23.875 -79 24 C-79 23.34 -79 22.68 -79 22 C-77.6078125 21.4121875 -77.6078125 21.4121875 -76.1875 20.8125 C-74.00523756 19.88590444 -71.85401476 18.92950713 -69.71875 17.8984375 C-55.78494389 11.23257346 -41.04132668 7.2555629 -26 4 C-25.10152344 3.773125 -24.20304688 3.54625 -23.27734375 3.3125 C-15.60027052 1.46692647 -7.84253279 1.82485659 0 2 C0 1.34 0 0.68 0 0 Z " fill="#FEFEFE" transform="translate(409,529)"/>
<path d="M0 0 C121.11 0 242.22 0 367 0 C366.67 0.99 366.34 1.98 366 3 C363.515625 4.140625 363.515625 4.140625 360.25 5.25 C335.69271133 14.31153228 320.03834502 30.49448318 309.08203125 54.04296875 C304.89492152 63.45626066 302.35300865 72.88678898 300.42114258 82.98608398 C300.02785662 84.86678882 299.51415169 86.72118354 298.9921875 88.5703125 C297.34514501 95.0073123 297.03072394 101.71180618 296.4375 108.3125 C296.190565 111.01737334 295.93815193 113.72160042 295.68359375 116.42578125 C295.57587646 117.61598877 295.46815918 118.80619629 295.35717773 120.0324707 C295 123 295 123 294 126 C293.90522447 127.82858801 293.86981703 129.66047498 293.86692142 131.49151516 C293.86268038 132.64019146 293.85843933 133.78886777 293.85406977 134.97235245 C293.8544559 136.24020035 293.85484203 137.50804826 293.85523987 138.8143158 C293.85210662 140.17050915 293.84853193 141.52670154 293.84455246 142.88289267 C293.83483991 146.61878299 293.8313015 150.35465801 293.82870948 154.09055912 C293.82481905 158.11767187 293.81518048 162.14477107 293.80615234 166.171875 C293.79119711 173.15844891 293.77965875 180.14502174 293.77020454 187.13160515 C293.75631793 197.26358151 293.73512431 207.39553301 293.71177601 217.52749152 C293.67382252 234.0053823 293.63887818 250.48327765 293.60717773 266.96118164 C293.60527724 267.94801516 293.60337675 268.93484869 293.60141867 269.95158625 C293.57468074 283.90508917 293.55078606 297.85859552 293.52803367 311.81210542 C293.52563771 313.28098604 293.52563771 313.28098604 293.52319336 314.77954102 C293.52159989 315.75759108 293.52000643 316.73564115 293.51836468 317.7433291 C293.49147244 334.12875706 293.45701394 350.51415909 293.41653961 366.89955908 C293.39192523 376.98543399 293.37350957 387.07128116 293.363384 397.15718121 C293.35591704 404.09648865 293.34127904 411.03575887 293.32131977 417.9750415 C293.31007663 421.96224485 293.30178452 425.94938864 293.30232811 429.93660927 C293.30269157 487.26410171 293.30269157 487.26410171 287 509 C286.25426706 512.42802893 285.56464915 515.86421743 284.87890625 519.3046875 C283.84640992 523.64576097 282.46298918 527.7886157 281 532 C280.46223391 533.58723766 279.92447358 535.17447727 279.38671875 536.76171875 C265.1756623 578.17073029 242.11818735 614.38971076 211.03833008 645.22241211 C209.4274435 646.82248901 207.82765628 648.43311476 206.22851562 650.04492188 C200.12974499 656.15152208 193.85493288 661.73691723 187 667 C185.41356966 668.28786102 183.82989646 669.5791318 182.25 670.875 C165.05521164 684.58291951 146.38340821 696.63983025 127 707 C126.12972168 707.46792969 125.25944336 707.93585937 124.36279297 708.41796875 C111.7937107 715.15380206 99.13476554 721.44600728 86 727 C84.98550781 727.43441406 83.97101563 727.86882813 82.92578125 728.31640625 C81.02604743 729.11922263 79.12084613 729.90919943 77.2109375 730.6875 C74.87040519 731.64421394 72.54787759 732.62405539 70.2265625 733.625 C21.2488063 754.35491316 -32.41344915 766.89057428 -84.89611816 774.6842041 C-87.15036916 775.02257064 -89.40285488 775.3713291 -91.65527344 775.72167969 C-113.27322322 779.07109429 -134.87902709 781.63161012 -156.6875 783.375 C-157.74159058 783.46049103 -158.79568115 783.54598206 -159.88171387 783.63406372 C-171.94492246 784.59760406 -183.89552114 785.2579878 -196 785 C-196 781.37 -196 777.74 -196 774 C-190.36846072 772.93507639 -184.75535903 771.93507223 -179.07421875 771.17578125 C-107.04281231 761.53471533 -35.06343038 732.80662843 10.4375 673.8125 C25.61615448 653.85297638 37.52395016 632.79257711 46.640625 609.4375 C47.57516034 607.07430718 48.55728447 604.72955694 49.578125 602.40234375 C50.81291552 599.44766643 51.72653399 596.66096799 52.5 593.5625 C53.29547861 590.38532055 54.21543721 587.44857622 55.41015625 584.390625 C57.42464758 579.11703219 58.65738245 573.67708128 59.9375 568.1875 C60.19764893 567.07874512 60.45779785 565.96999023 60.72583008 564.82763672 C61.24823417 562.58783925 61.76741187 560.34728657 62.28320312 558.10595703 C62.90057912 555.43080122 63.53433659 552.76023488 64.171875 550.08984375 C67.11558588 537.36448423 68.43392217 524.50692515 69.67456055 511.51757812 C70 509 70 509 71 506 C71.50014167 501.32520528 71.75575651 496.62857587 72.04632568 491.9365387 C72.09076631 491.2273365 72.13520693 490.51813431 72.18099424 489.78744114 C73.15117074 473.96678508 73.28851289 458.17937893 73.26144934 442.33388603 C73.2568166 438.29632005 73.26396061 434.25876931 73.26940918 430.22120667 C73.2781923 422.36112922 73.2764316 414.50109047 73.2705839 406.64101165 C73.2660233 400.23996064 73.26547323 393.8389203 73.26763153 387.43786812 C73.26809123 386.05901518 73.26809123 386.05901518 73.26856022 384.65230663 C73.26919982 382.78354139 73.26984825 380.91477615 73.2705054 379.04601092 C73.27617613 361.6202054 73.26970223 344.1944211 73.25890467 326.76861907 C73.24997065 311.89090146 73.25152635 297.01321509 73.26074219 282.13549805 C73.27150029 264.76044868 73.27562868 247.38541778 73.26951766 230.01036555 C73.26888072 228.14968241 73.26825197 226.28899926 73.26763153 224.42831612 C73.26732298 223.51337675 73.26701443 222.59843738 73.26669653 221.65577258 C73.26498622 215.27896827 73.26784822 208.90217591 73.27259064 202.52537346 C73.27826151 194.73059095 73.27655508 186.93584858 73.26602915 179.14107054 C73.2608546 175.18163932 73.25857065 171.22227446 73.26532745 167.26284409 C73.28975007 151.6438732 73.05304123 136.09956981 72.04632568 120.50904846 C71.98166337 119.49402648 71.98166337 119.49402648 71.91569474 118.45849901 C71.81984972 111.52318321 71.81984972 111.52318321 70 105 C69.79404413 103.61694663 69.63141176 102.22729333 69.4921875 100.8359375 C67.2217809 80.35063452 62.32524433 60.95067428 52 43 C51.44699219 42.01128906 50.89398437 41.02257812 50.32421875 40.00390625 C38.55734056 20.20522099 20.90458686 10.18005573 0 2 C0 1.34 0 0.68 0 0 Z " fill="#FEFEFE" transform="translate(659,289)"/>
<path d="M0 0 C0.66 0.33 1.32 0.66 2 1 C-3.28 6.28 -8.56 11.56 -14 17 C-14.66 16.67 -15.32 16.34 -16 16 C-5.62642369 4.29384966 -5.62642369 4.29384966 0 0 Z " fill="#7C67EE" transform="translate(996,305)"/>
</svg>
